<svg xmlns="http://www.w3.org/2000/svg" width="45" height="27"><path d="M16.456 21.704l1.626 2.816a1.32 1.32 0 0 1-.482 1.801c-.208.12-.434.177-.658.177a1.32 1.32 0 0 1-1.143-.659l-1.626-2.816a1.32 1.32 0 0 1 .482-1.801 1.32 1.32 0 0 1 1.801.483zm6.372 0l1.626 2.816a1.32 1.32 0 0 1-.482 1.801c-.208.12-.434.177-.658.177a1.32 1.32 0 0 1-1.143-.659l-1.626-2.816a1.32 1.32 0 0 1 .482-1.801 1.32 1.32 0 0 1 1.801.483zm6.372 0l1.626 2.816a1.32 1.32 0 0 1-.482 1.801c-.208.12-.434.177-.658.177a1.32 1.32 0 0 1-1.143-.659l-1.626-2.816a1.32 1.32 0 0 1 .482-1.801 1.32 1.32 0 0 1 1.801.483zm6.75-5.643l.426 2.878H8.624l.426-2.878h26.9zM41.21 0c1.995 0 3.636 1.55 3.78 3.508v.282 11.357c0 1.995-1.55 3.636-3.508 3.78l-.282.01h-2.167l-.65-4.4a1.32 1.32 0 0 0-1.111-1.111l-.193-.014H7.913a1.32 1.32 0 0 0-1.262.937l-.042.19-.65 4.4H3.79c-1.995 0-3.636-1.55-3.78-3.51L0 15.148V3.79C0 1.796 1.55.155 3.51.01L3.79 0H41.21zm-5.023 8.41a1.42 1.42 0 0 0-1.419 1.419 1.42 1.42 0 0 0 1.419 1.419 1.42 1.42 0 0 0 1.419-1.419 1.42 1.42 0 0 0-1.419-1.419zm0-3.69a1.42 1.42 0 0 0-1.419 1.419 1.42 1.42 0 0 0 1.419 1.419 1.42 1.42 0 0 0 1.419-1.419 1.42 1.42 0 0 0-1.419-1.419z" fill="#fff" fill-rule="nonzero"/></svg>